<svg width="25" height="22" viewBox="0 0 25 22" fill="none" xmlns="http://www.w3.org/2000/svg">
<path d="M1 0C0.447715 0 0 0.447715 0 1V3C0 3.55228 0.447715 4 1 4H3C3.55228 4 4 3.55228 4 3V1C4 0.447715 3.55228 0 3 0H1Z" fill="white"/>
<path d="M6.75 1.25C6.33579 1.25 6 1.58579 6 2C6 2.41421 6.33579 2.75 6.75 2.75H24.25C24.6642 2.75 25 2.41421 25 2C25 1.58579 24.6642 1.25 24.25 1.25H6.75Z" fill="white"/>
<path d="M0 10C0 9.44771 0.447715 9 1 9H3C3.55228 9 4 9.44771 4 10V12C4 12.5523 3.55228 13 3 13H1C0.447715 13 0 12.5523 0 12V10Z" fill="white"/>
<path d="M6.75 10.25C6.33579 10.25 6 10.5858 6 11C6 11.4142 6.33579 11.75 6.75 11.75H24.25C24.6642 11.75 25 11.4142 25 11C25 10.5858 24.6642 10.25 24.25 10.25H15.5H6.75Z" fill="white"/>
<path d="M0 19C0 18.4477 0.447715 18 1 18H3C3.55228 18 4 18.4477 4 19V21C4 21.5523 3.55228 22 3 22H1C0.447715 22 0 21.5523 0 21V19Z" fill="white"/>
<path d="M6.75 19.25C6.33579 19.25 6 19.5858 6 20C6 20.4142 6.33579 20.75 6.75 20.75H24.25C24.6642 20.75 25 20.4142 25 20C25 19.5858 24.6642 19.25 24.25 19.25H6.75Z" fill="white"/>
</svg>
