<svg width="30" height="30" viewBox="0 0 30 30" fill="none" xmlns="http://www.w3.org/2000/svg">
<path d="M15.6251 3.83789C18.4401 3.83789 20.7344 6.00143 20.7344 8.68457V11.1953H26.9044C27.0974 11.1745 27.2914 11.2361 27.4327 11.3672L27.4844 11.4209C27.5974 11.5525 27.6488 11.7259 27.6192 11.8984L27.6182 11.9014L25.42 23.2549L25.421 23.2559C25.1037 24.9121 23.6046 26.1219 21.8409 26.1631H9.41022C7.65128 26.1356 6.14958 24.9353 5.83014 23.2842L3.6319 11.9014L3.63092 11.8984C3.5976 11.7044 3.66661 11.5095 3.81061 11.374C3.87754 11.2812 3.96982 11.2356 4.06158 11.2148C4.15497 11.1938 4.25849 11.1953 4.34283 11.1953H10.5167V8.68457C10.5167 6.00145 12.8101 3.83793 15.6251 3.83789ZM7.25104 23.0693H7.25201C7.43732 24.0572 8.34127 24.7889 9.41315 24.7988H21.837C22.9089 24.7889 23.8138 24.0572 23.9991 23.0693L26.0499 12.5596H5.20026L7.25104 23.0693ZM15.6251 5.20215C13.5847 5.20216 11.9424 6.76788 11.9424 8.68457V11.1953H19.3077V8.68457C19.3077 6.76788 17.6654 5.20215 15.6251 5.20215Z" fill="white" stroke="white" stroke-width="0.254121"/>
<path d="M20.0207 14.9434C20.408 14.9434 20.7336 15.2428 20.7336 15.626V17.291C20.7336 17.6742 20.408 17.9736 20.0207 17.9736C19.6335 17.9735 19.3077 17.6742 19.3078 17.291V15.626C19.3078 15.2428 19.6334 14.9434 20.0207 14.9434Z" fill="white" stroke="white" stroke-width="0.254121"/>
<path d="M11.2294 14.9434C11.6167 14.9434 11.9423 15.2428 11.9423 15.626V17.291C11.9423 17.6742 11.6167 17.9736 11.2294 17.9736C10.8422 17.9735 10.5165 17.6742 10.5165 17.291V15.626C10.5165 15.2428 10.8422 14.9434 11.2294 14.9434Z" fill="white" stroke="white" stroke-width="0.254121"/>
</svg>
