<svg width="87" height="57" viewBox="0 0 87 57" fill="none" xmlns="http://www.w3.org/2000/svg">
<path fill-rule="evenodd" clip-rule="evenodd" d="M56.643 18.5222C57.824 18.1232 59.0051 18.3674 59.2354 19.0702C59.4657 19.773 58.6862 20.6724 57.4638 21.0714C56.2414 21.4705 55.1017 21.2322 54.8714 20.5294C54.6411 19.8266 55.4206 18.9272 56.643 18.5222Z" fill="#E3051E"/>
<path fill-rule="evenodd" clip-rule="evenodd" d="M62.6606 16.7294C63.8417 16.3304 65.0227 16.5746 65.2471 17.2774C65.4715 17.9802 64.6979 18.8736 63.4755 19.2787C62.2531 19.6837 61.1134 19.4335 60.8831 18.7307C60.6528 18.0279 61.4382 17.1345 62.6547 16.7294" fill="#E3051E"/>
<path fill-rule="evenodd" clip-rule="evenodd" d="M65.7664 19.088C66.9475 18.683 68.1285 18.9272 68.3589 19.63C68.5892 20.3328 67.8038 21.2322 66.5873 21.6312C65.3708 22.0303 64.2252 21.7921 64.0008 21.0892C63.7764 20.3864 64.55 19.487 65.7724 19.088" fill="#E3051E"/>
<path fill-rule="evenodd" clip-rule="evenodd" d="M63.1742 22.8226C64.3553 22.4176 65.5364 22.6618 65.7607 23.3646C65.9852 24.0674 65.2116 24.9668 63.9892 25.3658C62.7668 25.7649 61.6271 25.5266 61.3968 24.8238C61.1665 24.121 61.9519 23.2216 63.1683 22.8226" fill="#E3051E"/>
<path fill-rule="evenodd" clip-rule="evenodd" d="M57.2336 24.5677C58.4147 24.1626 59.5957 24.4068 59.8201 25.1097C60.0445 25.8125 59.271 26.7119 58.0486 27.1109C56.8262 27.51 55.6864 27.2717 55.4561 26.5689C55.2258 25.8661 56.0112 24.9667 57.2277 24.5677" fill="#E3051E"/>
<path fill-rule="evenodd" clip-rule="evenodd" d="M54.0267 22.1852C55.2078 21.7861 56.3888 22.0303 56.6132 22.7332C56.8377 23.436 56.0641 24.3294 54.8417 24.7344C53.6193 25.1394 52.4795 24.8893 52.2492 24.1864C52.0189 23.4836 52.8043 22.5902 54.0208 22.1852" fill="#E3051E"/>
<path fill-rule="evenodd" clip-rule="evenodd" d="M30.8904 3.5664C57.3519 -4.05742 81.9709 0.945714 85.8801 14.7222C89.7894 28.4987 71.5008 45.8548 45.0394 53.4369C27.3236 58.5354 10.4051 57.9695 0 52.8949C11.6038 55.9445 28.0972 55.5871 42.2344 51.5191C65.6192 44.7827 81.7996 29.4398 78.3273 17.2416C76.792 11.8216 71.6485 7.93223 64.3555 5.87738C48.0865 1.29713 28.233 4.72189 11.7987 11.4344L11.6688 11.488C17.7527 8.11077 24.2025 5.45266 30.8904 3.5664Z" fill="#E3051E"/>
</svg>
