<svg width="219" height="36" viewBox="0 0 219 36" fill="none" xmlns="http://www.w3.org/2000/svg">
<rect x="61" width="36" height="36" fill="#ECECEC"/>
<path d="M70.8999 23.6799C72.4667 24.6349 74.302 25.1992 76.2716 25.1992C82.8072 25.1992 86.4779 19.86 86.2541 15.0851C86.9256 14.6076 87.5523 13.9999 87.9999 13.3053C87.3732 13.5658 86.7017 13.7394 85.9855 13.8262C86.7017 13.3921 87.2837 12.741 87.5075 11.9597C86.836 12.3503 86.075 12.6542 85.2693 12.7844C84.6426 12.1333 83.7025 11.6992 82.7177 11.6992C80.4347 11.6992 78.7784 13.7394 79.3156 15.8664C76.4059 15.7362 73.8096 14.3905 72.0638 12.3069C71.1237 13.8262 71.5714 15.823 73.1381 16.8648C72.5562 16.8648 72.019 16.6912 71.5266 16.4307C71.4818 17.9934 72.6457 19.4693 74.3468 19.8166C73.8544 19.9468 73.3172 19.9902 72.78 19.86C73.2277 21.2056 74.5258 22.204 76.0478 22.204C74.6153 23.3761 72.78 23.897 70.8999 23.6799Z" fill="#828282"/>
<rect width="36" height="36" fill="#ECECEC"/>
<path d="M15.5352 28.8016H19.4698V18.3562H22.2286L22.5 14.8744H19.4698C19.4698 14.8744 19.4698 13.5866 19.4698 12.8711C19.4698 12.0603 19.6055 11.7264 20.3744 11.7264C20.9623 11.7264 22.5 11.7264 22.5 11.7264V8.10156C22.5 8.10156 20.2387 8.10156 19.7864 8.10156C16.8467 8.10156 15.5352 9.48474 15.5352 12.0603C15.5352 14.3497 15.5352 14.8267 15.5352 14.8267H13.5V18.3562H15.5352V28.8016Z" fill="#828282"/>
<rect x="122" width="36" height="36" fill="#ECECEC"/>
<path fill-rule="evenodd" clip-rule="evenodd" d="M150.637 12.5915C150.376 12.4084 149.37 12.4084 148.401 12.4084C147.396 12.4451 146.39 12.445 146.166 12.5183C145.942 12.5915 145.458 13.7262 144.862 14.9342C144.154 16.252 143.26 17.5331 142.738 17.5331C142.03 17.5331 142.179 15.3734 142.254 13.7262C142.254 12.6647 142.105 12.3352 141.919 12.2254C141.546 11.9692 140.503 11.7129 140.503 11.7129C140.503 11.7129 137.373 11.4933 136.926 12.8111C137.522 12.8843 138.566 12.7013 138.156 16.801C138.118 16.9841 137.671 18.7045 136.218 16.3984C135.846 15.8127 134.467 12.4084 133.983 12.3718C132.381 12.3352 130.779 12.262 130.22 12.5549C129.698 12.8477 130.928 15.1904 132.977 18.3384C134.654 20.9374 136.405 22.9507 139.46 23.4265C140.056 23.4997 141.546 23.5363 142.03 23.3167C142.329 23.1703 141.956 20.9374 143.036 20.7178C143.521 20.6446 145.384 23.0605 146.092 23.3167C146.539 23.4997 147.47 23.5729 148.439 23.4997C149.482 23.4631 150.674 23.6095 150.786 22.9141C151.047 21.3766 147.619 19.3634 147.545 18.4117C147.47 17.7162 148.774 16.4716 149.482 15.5199C150.227 14.4583 151.159 13.0307 150.637 12.5915Z" fill="#828282"/>
<rect x="183" width="36" height="36" fill="#ECECEC"/>
<path d="M200.85 11.4345C202.962 11.4345 203.201 11.4345 203.998 11.4743C204.755 11.5142 205.193 11.6337 205.472 11.7533C205.831 11.9127 206.11 12.0721 206.389 12.351C206.668 12.6299 206.827 12.869 206.986 13.2675C207.106 13.5464 207.225 13.9449 207.265 14.7418C207.305 15.5786 207.305 15.8177 207.305 17.8897C207.305 20.0016 207.305 20.2407 207.265 21.0377C207.225 21.7948 207.106 22.2331 206.986 22.512C206.827 22.8706 206.668 23.1496 206.389 23.4285C206.11 23.7074 205.871 23.8668 205.472 24.0262C205.193 24.1458 204.795 24.2653 203.998 24.3051C203.161 24.345 202.922 24.345 200.85 24.345C198.738 24.345 198.499 24.345 197.702 24.3051C196.945 24.2653 196.507 24.1458 196.228 24.0262C195.869 23.8668 195.59 23.7074 195.311 23.4285C195.032 23.1496 194.873 22.9105 194.713 22.512C194.594 22.2331 194.474 21.8346 194.435 21.0377C194.395 20.2009 194.395 19.9618 194.395 17.8897C194.395 15.7778 194.395 15.5388 194.435 14.7418C194.474 13.9847 194.594 13.5464 194.713 13.2675C194.873 12.9088 195.032 12.6299 195.311 12.351C195.59 12.0721 195.829 11.9127 196.228 11.7533C196.507 11.6337 196.905 11.5142 197.702 11.4743C198.539 11.4345 198.778 11.4345 200.85 11.4345ZM200.85 10C198.738 10 198.459 10 197.622 10.0398C196.785 10.0797 196.228 10.1992 195.71 10.3985C195.192 10.5977 194.753 10.8766 194.315 11.315C193.877 11.7533 193.598 12.1916 193.398 12.7096C193.199 13.2276 193.08 13.7855 193.04 14.6223C193 15.4591 193 15.738 193 17.8499C193 19.9618 193 20.2407 193.04 21.0775C193.08 21.9143 193.199 22.4722 193.398 22.9902C193.598 23.5082 193.877 23.9465 194.315 24.3848C194.753 24.8232 195.192 25.1021 195.71 25.3013C196.228 25.5006 196.785 25.6201 197.622 25.66C198.459 25.6998 198.738 25.6998 200.85 25.6998C202.962 25.6998 203.241 25.6998 204.078 25.66C204.914 25.6201 205.472 25.5006 205.99 25.3013C206.508 25.1021 206.947 24.8232 207.385 24.3848C207.823 23.9465 208.102 23.5082 208.301 22.9902C208.501 22.4722 208.62 21.9143 208.66 21.0775C208.7 20.2407 208.7 19.9618 208.7 17.8499C208.7 15.738 208.7 15.4591 208.66 14.6223C208.62 13.7855 208.501 13.2276 208.301 12.7096C208.102 12.1916 207.823 11.7533 207.385 11.315C206.947 10.8766 206.508 10.5977 205.99 10.3985C205.472 10.1992 204.914 10.0797 204.078 10.0398C203.281 10 203.002 10 200.85 10Z" fill="#828282"/>
<path d="M200.85 13.8254C198.618 13.8254 196.825 15.6185 196.825 17.8499C196.825 20.0814 198.618 21.8745 200.85 21.8745C203.081 21.8745 204.874 20.0814 204.874 17.8499C204.874 15.6185 203.081 13.8254 200.85 13.8254ZM200.85 20.44C199.415 20.44 198.22 19.2844 198.22 17.8101C198.22 16.3756 199.376 15.1802 200.85 15.1802C202.284 15.1802 203.48 16.3357 203.48 17.8101C203.48 19.2844 202.324 20.44 200.85 20.44Z" fill="#828282"/>
<path d="M205.99 13.666C205.99 14.184 205.552 14.6223 205.034 14.6223C204.516 14.6223 204.078 14.184 204.078 13.666C204.078 13.1479 204.516 12.7096 205.034 12.7096C205.552 12.7096 205.99 13.1479 205.99 13.666Z" fill="#828282"/>
</svg>
